G04*
G04 #@! TF.GenerationSoftware,Altium Limited,Altium Designer,24.1.2 (44)*
G04*
G04 Layer_Color=8421504*
%FSLAX25Y25*%
%MOIN*%
G70*
G04*
G04 #@! TF.SameCoordinates,54947B92-0A28-480F-A94A-97EC875EE3EC*
G04*
G04*
G04 #@! TF.FilePolarity,Positive*
G04*
G01*
G75*
%ADD21R,0.03000X0.04000*%
%ADD22R,0.04000X0.03000*%
%ADD23O,0.01063X0.05906*%
%ADD24O,0.05906X0.01063*%
%ADD25R,0.08661X0.03937*%
%ADD26R,0.08661X0.13780*%
%ADD27R,0.01181X0.03543*%
%ADD28R,0.03543X0.01181*%
%ADD29R,0.03500X0.05000*%
%ADD30R,0.07087X0.03937*%
%ADD31O,0.01433X0.08197*%
%ADD32R,0.04921X0.03937*%
%ADD33R,0.09055X0.05906*%
%ADD34R,0.03661X0.03858*%
D21*
X187469Y261000D02*
D03*
X193532D02*
D03*
X195563Y102500D02*
D03*
X189500D02*
D03*
X56532Y305500D02*
D03*
X50468D02*
D03*
X70031Y215500D02*
D03*
X63968D02*
D03*
X63968Y197500D02*
D03*
X70031D02*
D03*
X269531Y143500D02*
D03*
X263469D02*
D03*
X269531Y161500D02*
D03*
X263469D02*
D03*
X218969Y132000D02*
D03*
X225031D02*
D03*
X252532Y61500D02*
D03*
X246468D02*
D03*
X207469Y70500D02*
D03*
X213531D02*
D03*
X213531Y62000D02*
D03*
X207469D02*
D03*
X127469Y44500D02*
D03*
X133531D02*
D03*
X252532Y70000D02*
D03*
X246468D02*
D03*
D22*
X207500Y154032D02*
D03*
Y147968D02*
D03*
X191500Y233531D02*
D03*
Y227468D02*
D03*
X202500D02*
D03*
Y233531D02*
D03*
X231000Y196031D02*
D03*
Y189969D02*
D03*
X216500Y190000D02*
D03*
Y196063D02*
D03*
X231000Y220031D02*
D03*
Y213968D02*
D03*
X216500D02*
D03*
Y220031D02*
D03*
X109000Y168468D02*
D03*
Y174531D02*
D03*
X120000D02*
D03*
Y168468D02*
D03*
Y225969D02*
D03*
X120000Y232031D02*
D03*
X109000Y232031D02*
D03*
Y225969D02*
D03*
X196500Y110468D02*
D03*
Y116532D02*
D03*
X204500Y110468D02*
D03*
Y116532D02*
D03*
X184000Y195531D02*
D03*
Y189469D02*
D03*
X184000Y204468D02*
D03*
X184000Y210531D02*
D03*
X153500Y59469D02*
D03*
Y65531D02*
D03*
X144000D02*
D03*
Y59469D02*
D03*
X88000Y47969D02*
D03*
Y54031D02*
D03*
X74500Y54031D02*
D03*
Y47969D02*
D03*
D23*
X153264Y184855D02*
D03*
X151295Y184854D02*
D03*
X149327Y184855D02*
D03*
X147358Y184854D02*
D03*
X145390Y184855D02*
D03*
X143421Y184854D02*
D03*
X141453Y184855D02*
D03*
X139484Y184854D02*
D03*
X137516Y184855D02*
D03*
X135547Y184854D02*
D03*
X133579Y184855D02*
D03*
X131610Y184854D02*
D03*
X131611Y218318D02*
D03*
X133580Y218319D02*
D03*
X135548Y218318D02*
D03*
X137517Y218319D02*
D03*
X139485Y218318D02*
D03*
X141454Y218319D02*
D03*
X143422Y218318D02*
D03*
X145391Y218319D02*
D03*
X147359Y218318D02*
D03*
X149328Y218319D02*
D03*
X151296Y218318D02*
D03*
X153265Y218319D02*
D03*
D24*
X125706Y190759D02*
D03*
X125706Y192729D02*
D03*
Y194696D02*
D03*
X125706Y196666D02*
D03*
X125706Y198633D02*
D03*
X125706Y200603D02*
D03*
X125706Y202570D02*
D03*
X125706Y204540D02*
D03*
X125706Y206507D02*
D03*
X125706Y208477D02*
D03*
Y210444D02*
D03*
Y212414D02*
D03*
X159169D02*
D03*
Y210444D02*
D03*
Y208477D02*
D03*
Y206507D02*
D03*
Y204540D02*
D03*
Y202570D02*
D03*
Y200603D02*
D03*
Y198633D02*
D03*
Y196666D02*
D03*
Y194696D02*
D03*
Y192729D02*
D03*
Y190759D02*
D03*
D25*
X171689Y75555D02*
D03*
Y66500D02*
D03*
Y57445D02*
D03*
D26*
X195311Y66500D02*
D03*
D27*
X233208Y140996D02*
D03*
X231240D02*
D03*
X229271D02*
D03*
X227303D02*
D03*
X225334D02*
D03*
X223366D02*
D03*
Y156744D02*
D03*
X225334D02*
D03*
X227303D02*
D03*
X229271D02*
D03*
X231240D02*
D03*
X233208D02*
D03*
D28*
X220413Y143949D02*
D03*
Y145917D02*
D03*
Y147886D02*
D03*
Y149854D02*
D03*
Y151823D02*
D03*
Y153791D02*
D03*
X236161D02*
D03*
Y151823D02*
D03*
Y149854D02*
D03*
Y147886D02*
D03*
Y145917D02*
D03*
Y143949D02*
D03*
D29*
X252740Y53000D02*
D03*
X245260Y53000D02*
D03*
X249000Y44000D02*
D03*
D30*
X193567Y195122D02*
D03*
Y204965D02*
D03*
D31*
X116454Y138532D02*
D03*
X113895D02*
D03*
X111336D02*
D03*
X108777D02*
D03*
X106218D02*
D03*
X103659D02*
D03*
X101100D02*
D03*
X98541D02*
D03*
X95982D02*
D03*
X93423D02*
D03*
X90864D02*
D03*
X88305D02*
D03*
X116454Y111043D02*
D03*
X113895D02*
D03*
X111336D02*
D03*
X108777D02*
D03*
X106218D02*
D03*
X103659D02*
D03*
X101100D02*
D03*
X98541D02*
D03*
X95982D02*
D03*
X93423D02*
D03*
X90864D02*
D03*
X88305D02*
D03*
D32*
X108193Y44500D02*
D03*
X119807D02*
D03*
D33*
X9386Y215509D02*
D03*
X45213Y215508D02*
D03*
X9386Y197792D02*
D03*
X45213D02*
D03*
D34*
X207437Y261000D02*
D03*
X213500D02*
D03*
M02*
